<svg width="116" height="34" viewBox="0 0 116 34" fill="none" xmlns="http://www.w3.org/2000/svg">
<path d="M0.234375 2.98438V2.85938H4.5V26H0.234375V25.875C0.765625 25.7292 1.15625 25.3438 1.40625 24.7188C1.65625 24.0833 1.78125 22.9635 1.78125 21.3594V7.5C1.78125 5.89583 1.65625 4.78125 1.40625 4.15625C1.15625 3.52083 0.765625 3.13021 0.234375 2.98438ZM8.78125 13.9375C11.3229 14.0833 13.2812 14.6667 14.6562 15.6875C16.0312 16.6979 16.7188 18.0885 16.7188 19.8594C16.7188 23.9531 13.349 26 6.60938 26V25.8125C11.4115 25.8125 13.8125 23.8281 13.8125 19.8594C13.8125 17.7448 13.1823 16.25 11.9219 15.375C10.6615 14.5 8.93229 14.0521 6.73438 14.0312V13.8438C8.56771 13.8021 10 13.3438 11.0312 12.4688C12.0729 11.5938 12.6042 10.25 12.625 8.4375C12.6458 6.6875 12.125 5.35417 11.0625 4.4375C10.0104 3.52083 8.52604 3.0625 6.60938 3.0625V2.85938C9.51562 2.85938 11.7292 3.39062 13.25 4.45312C14.7708 5.50521 15.5312 6.83333 15.5312 8.4375C15.5312 9.92708 14.8958 11.1562 13.625 12.125C12.3542 13.0938 10.7396 13.6771 8.78125 13.875V13.9375ZM24.3281 5.875C23.974 6.16667 23.5208 6.3125 22.9688 6.3125C22.4167 6.3125 21.9583 6.16667 21.5938 5.875C21.2292 5.57292 21.0469 5.1875 21.0469 4.71875C21.0469 4.22917 21.2188 3.83854 21.5625 3.54688C21.9167 3.24479 22.3854 3.09375 22.9688 3.09375C23.5208 3.09375 23.974 3.24479 24.3281 3.54688C24.6823 3.83854 24.8594 4.22917 24.8594 4.71875C24.8594 5.1875 24.6823 5.57292 24.3281 5.875ZM24.3438 22.3906C24.3438 23.651 24.4531 24.5104 24.6719 24.9688C24.901 25.4167 25.3229 25.7292 25.9375 25.9062V26H20.2188V25.9062C20.8542 25.7188 21.2812 25.401 21.5 24.9531C21.7292 24.4948 21.8438 23.6406 21.8438 22.3906V14.125C21.8438 12.7812 21.724 11.8385 21.4844 11.2969C21.2552 10.7552 20.8542 10.375 20.2812 10.1562L20.3125 10.0938C21.9375 9.96875 23.3542 9.57292 24.5625 8.90625L24.625 8.96875C24.4375 9.88542 24.3438 11.6042 24.3438 14.125V22.3906ZM42.5 5.84375L42.5312 5.78125L44.6406 5.07812C45.0469 5.58854 45.25 6.17188 45.25 6.82812C45.25 7.46354 45.0052 8 44.5156 8.4375C44.026 8.86458 43.3854 9.14062 42.5938 9.26562L42.5 9.20312C42.8646 8.77604 43.0469 8.23438 43.0469 7.57812C43.0469 6.91146 42.8646 6.33333 42.5 5.84375ZM30.4062 15.3125C30.4062 13.6042 30.9427 12.1823 32.0156 11.0469C33.099 9.90104 34.526 9.22396 36.2969 9.01562V9.14062C35.276 9.40104 34.4844 10.0521 33.9219 11.0938C33.3698 12.1354 33.1042 13.5417 33.125 15.3125C33.1458 18.6146 34.2031 20.5469 36.2969 21.1094V21.2344C34.526 21.0677 33.099 20.4427 32.0156 19.3594C30.9427 18.2656 30.4062 16.9167 30.4062 15.3125ZM38.375 21.2344V21.1094C40.4062 20.5573 41.4531 18.5938 41.5156 15.2188C41.5365 13.4688 41.2656 12.0833 40.7031 11.0625C40.151 10.0312 39.375 9.39062 38.375 9.14062V9.01562C40.125 9.20312 41.5365 9.86979 42.6094 11.0156C43.6927 12.151 44.2344 13.5521 44.2344 15.2188C44.2344 16.8438 43.6927 18.2083 42.6094 19.3125C41.5365 20.4062 40.125 21.0469 38.375 21.2344ZM30.375 23.4375C31.2292 23.0312 32.0156 22.5104 32.7344 21.875L32.8438 21.9688C32.4375 22.5 32.2344 22.9583 32.2344 23.3438C32.2344 24.0521 32.7656 24.4062 33.8281 24.4062H40.3906C42.1198 24.4062 43.4271 24.7969 44.3125 25.5781C45.1979 26.349 45.6406 27.3438 45.6406 28.5625C45.6406 29.9271 45.026 31.1042 43.7969 32.0938C42.5677 33.0833 40.7812 33.6354 38.4375 33.75V33.5781C40.2083 33.474 41.5938 33.0469 42.5938 32.2969C43.5938 31.5573 44.0938 30.6615 44.0938 29.6094C44.0938 27.5781 42.6042 26.5677 39.625 26.5781H33.7656C31.5052 26.5781 30.375 25.5312 30.375 23.4375ZM29.4375 29.875C29.4375 29.2812 29.6719 28.7917 30.1406 28.4062C30.6198 28.0208 31.2083 27.8073 31.9062 27.7656L31.9375 27.8281C31.5938 28.3385 31.4219 28.9583 31.4219 29.6875C31.4219 30.7917 31.8385 31.6823 32.6719 32.3594C33.5052 33.0469 34.7344 33.4531 36.3594 33.5781V33.75C33.974 33.6458 32.224 33.2083 31.1094 32.4375C29.9948 31.6667 29.4375 30.8125 29.4375 29.875ZM55.0312 13.5469C55.0312 12.3906 55.4167 11.3958 56.1875 10.5625C56.9688 9.71875 58.0208 9.20312 59.3438 9.01562V9.14062C58.6354 9.34896 58.0729 9.73958 57.6562 10.3125C57.25 10.875 57.0469 11.5156 57.0469 12.2344C57.0469 13.0677 57.349 13.8021 57.9531 14.4375C58.5573 15.0625 59.2917 15.5885 60.1562 16.0156C61.0208 16.4427 61.8854 16.8802 62.75 17.3281C63.6146 17.776 64.349 18.3594 64.9531 19.0781C65.5677 19.7865 65.875 20.6198 65.875 21.5781C65.875 22.776 65.4635 23.7812 64.6406 24.5938C63.8177 25.4062 62.6927 25.9167 61.2656 26.125V25.9688C62.8906 25.6042 63.7031 24.5365 63.7031 22.7656C63.7031 21.9531 63.401 21.2396 62.7969 20.625C62.2031 20.0104 61.4792 19.4896 60.625 19.0625C59.7708 18.6354 58.9219 18.1979 58.0781 17.75C57.2344 17.3021 56.5156 16.724 55.9219 16.0156C55.3281 15.3073 55.0312 14.4844 55.0312 13.5469ZM61.4219 9.14062V9.01562C63.0885 9.22396 64.3906 9.74479 65.3281 10.5781L64.5312 14.4531H64.4688C64.0208 11.401 63.0052 9.63021 61.4219 9.14062ZM54.5156 24.625L55.1875 20.6875H55.25C55.5104 22.25 56.0052 23.474 56.7344 24.3594C57.474 25.2448 58.2917 25.7812 59.1875 25.9688V26.125C57.2917 25.9375 55.7344 25.4375 54.5156 24.625ZM68.8281 17.5469C68.8281 15.3073 69.474 13.3802 70.7656 11.7656C72.0573 10.1406 73.7552 9.20833 75.8594 8.96875V9.14062C74.5573 9.44271 73.5156 10.3542 72.7344 11.875C71.9635 13.3958 71.5781 15.2865 71.5781 17.5469C71.599 19.9323 71.9896 21.8646 72.75 23.3438C73.5104 24.8125 74.5469 25.6979 75.8594 26V26.1562C73.7031 25.9167 71.9896 25.0156 70.7188 23.4531C69.4583 21.8802 68.8281 19.9115 68.8281 17.5469ZM77.9531 9.14062V8.96875C80.0469 9.22917 81.7292 10.1719 83 11.7969C84.2812 13.4115 84.9219 15.3281 84.9219 17.5469C84.9219 19.8906 84.2865 21.849 83.0156 23.4219C81.7448 24.9948 80.0573 25.9062 77.9531 26.1562V26C79.2552 25.6979 80.2812 24.8073 81.0312 23.3281C81.7917 21.849 82.1719 19.9219 82.1719 17.5469C82.1719 15.3073 81.7865 13.4323 81.0156 11.9219C80.2552 10.4115 79.2344 9.48438 77.9531 9.14062ZM96.7969 24.7188C97.9948 24.7188 98.9323 24.3333 99.6094 23.5625L99.6406 23.625C99.3385 24.2812 98.8073 24.875 98.0469 25.4062C97.2969 25.9271 96.4115 26.1875 95.3906 26.1875C93.8281 26.1875 92.5938 25.6927 91.6875 24.7031C90.7812 23.7135 90.3281 22.3958 90.3281 20.75V14.125C90.3281 12.7812 90.2083 11.8385 89.9688 11.2969C89.7396 10.7552 89.3281 10.375 88.7344 10.1562L88.7969 10.0938C90.4219 9.96875 91.8385 9.57292 93.0469 8.90625L93.0781 8.96875C92.8906 10.1875 92.7969 11.9062 92.7969 14.125V19.8281C92.7969 21.4323 93.1406 22.651 93.8281 23.4844C94.526 24.3073 95.5156 24.7188 96.7969 24.7188ZM104.031 21.2969C104.031 22.6615 104.141 23.5938 104.359 24.0938C104.589 24.5938 104.99 24.9427 105.562 25.1406V25.2344C104.323 25.2552 103 25.5833 101.594 26.2188L101.531 26.1562V14.125C101.531 12.7812 101.411 11.8385 101.172 11.2969C100.943 10.7552 100.542 10.375 99.9688 10.1562L100 10.0938C101.625 9.96875 103.042 9.57292 104.25 8.90625L104.312 8.96875C104.125 9.88542 104.031 11.6042 104.031 14.125V21.2969ZM113.578 22.3906C113.578 23.651 113.693 24.5104 113.922 24.9688C114.161 25.4167 114.594 25.7292 115.219 25.9062V26H109.484V25.9062C110.12 25.7188 110.547 25.401 110.766 24.9531C110.984 24.4948 111.094 23.6406 111.094 22.3906V5.60938C111.094 4.26562 110.974 3.31771 110.734 2.76562C110.505 2.21354 110.099 1.83854 109.516 1.64062L109.547 1.54688C111.193 1.44271 112.615 1.0625 113.812 0.40625L113.875 0.4375C113.688 1.71875 113.589 3.44271 113.578 5.60938V22.3906Z" fill="white"/>
</svg>
