<svg width="145" height="42" fill="none" xmlns="http://www.w3.org/2000/svg"><path d="M.918 3.23v-.156H6.25V32H.918v-.156c.664-.183 1.152-.664 1.465-1.446.312-.794.469-2.194.469-4.199V8.875c0-2.005-.157-3.398-.47-4.18-.312-.794-.8-1.282-1.464-1.465zm10.684 13.692c3.177.182 5.625.911 7.343 2.187 1.72 1.263 2.578 3.002 2.578 5.215 0 5.117-4.212 7.676-12.636 7.676v-.234c6.002 0 9.004-2.48 9.004-7.442 0-2.643-.788-4.512-2.364-5.605-1.575-1.094-3.737-1.654-6.484-1.68v-.234c2.292-.052 4.082-.625 5.371-1.72 1.302-1.093 1.966-2.773 1.992-5.038.026-2.188-.625-3.854-1.953-5-1.315-1.146-3.17-1.719-5.566-1.719v-.254c3.633 0 6.4.664 8.3 1.992 1.901 1.316 2.852 2.976 2.852 4.98 0 1.863-.794 3.4-2.383 4.61-1.588 1.211-3.606 1.94-6.054 2.188v.078zM31.035 6.844c-.443.364-1.009.547-1.7.547-.69 0-1.262-.183-1.718-.547a1.795 1.795 0 0 1-.683-1.446c0-.612.214-1.1.644-1.464.443-.378 1.029-.567 1.758-.567.69 0 1.256.189 1.7.567.442.364.663.852.663 1.464 0 .586-.221 1.068-.664 1.446zm.02 20.644c0 1.576.136 2.65.41 3.223.286.56.814.95 1.582 1.172V32h-7.149v-.117c.795-.235 1.329-.632 1.602-1.192.287-.572.43-1.64.43-3.203V17.156c0-1.68-.15-2.858-.45-3.535-.286-.677-.787-1.152-1.503-1.426l.039-.078c2.03-.156 3.802-.65 5.312-1.484l.078.078c-.234 1.146-.351 3.294-.351 6.445v10.332zM53.75 6.805l.04-.078 2.636-.88c.508.639.761 1.368.761 2.188 0 .794-.305 1.465-.917 2.012-.612.534-1.413.879-2.403 1.035l-.117-.078c.456-.534.684-1.211.684-2.031 0-.834-.228-1.556-.684-2.168zM38.633 18.64c0-2.136.67-3.913 2.011-5.332 1.355-1.433 3.139-2.28 5.352-2.54v.157c-1.276.325-2.266 1.14-2.969 2.441-.69 1.302-1.022 3.06-.996 5.274.026 4.127 1.348 6.543 3.965 7.246v.156c-2.213-.208-3.997-.99-5.352-2.344-1.34-1.367-2.011-3.053-2.011-5.058zm9.96 7.402v-.156c2.54-.69 3.848-3.145 3.926-7.364.027-2.187-.312-3.919-1.015-5.195-.69-1.289-1.66-2.09-2.91-2.402v-.156c2.187.234 3.952 1.067 5.293 2.5 1.354 1.419 2.031 3.17 2.031 5.253 0 2.032-.677 3.737-2.031 5.118-1.341 1.367-3.106 2.168-5.293 2.402zm-10 2.754a12.617 12.617 0 0 0 2.95-1.953l.137.117c-.508.664-.762 1.237-.762 1.719 0 .885.664 1.328 1.992 1.328h8.203c2.162 0 3.796.488 4.903 1.465 1.106.963 1.66 2.207 1.66 3.73 0 1.706-.768 3.177-2.305 4.414-1.536 1.237-3.77 1.927-6.7 2.07v-.214c2.214-.13 3.946-.664 5.196-1.602 1.25-.924 1.875-2.044 1.875-3.36 0-2.538-1.862-3.801-5.586-3.788h-7.324c-2.825 0-4.238-1.309-4.238-3.926zm-1.171 8.047c0-.742.293-1.354.879-1.836.599-.482 1.334-.749 2.207-.801l.039.078c-.43.638-.645 1.413-.645 2.324 0 1.38.521 2.494 1.563 3.34 1.041.86 2.578 1.367 4.61 1.524v.215c-2.983-.13-5.17-.678-6.563-1.641-1.394-.964-2.09-2.031-2.09-3.203zm31.992-20.41c0-1.446.482-2.69 1.445-3.73.977-1.056 2.292-1.7 3.946-1.934v.156c-.886.26-1.589.748-2.11 1.465a4 4 0 0 0-.761 2.402c0 1.042.377 1.96 1.132 2.754.756.781 1.674 1.439 2.754 1.973 1.081.533 2.162 1.08 3.243 1.64a8.905 8.905 0 0 1 2.753 2.188c.769.885 1.153 1.927 1.153 3.125 0 1.497-.515 2.754-1.543 3.77-1.029 1.015-2.435 1.653-4.219 1.913v-.195c2.031-.456 3.047-1.79 3.047-4.004 0-1.016-.378-1.908-1.133-2.676-.742-.768-1.647-1.419-2.715-1.953a146.417 146.417 0 0 1-3.183-1.64 8.957 8.957 0 0 1-2.696-2.168c-.742-.886-1.113-1.915-1.113-3.086zm7.988-5.508v-.156c2.084.26 3.711.911 4.883 1.953l-.996 4.843h-.078c-.56-3.815-1.83-6.028-3.809-6.64zM68.77 30.28l.84-4.922h.079c.325 1.953.944 3.483 1.855 4.59.924 1.107 1.947 1.778 3.066 2.012v.195c-2.37-.234-4.316-.86-5.84-1.875zm17.891-8.847c0-2.8.807-5.209 2.422-7.227 1.615-2.031 3.737-3.197 6.367-3.496v.215c-1.627.377-2.93 1.517-3.906 3.418-.964 1.9-1.445 4.264-1.445 7.09.026 2.981.514 5.397 1.465 7.246.95 1.836 2.246 2.942 3.886 3.32v.195c-2.695-.3-4.837-1.425-6.426-3.379-1.575-1.966-2.363-4.427-2.363-7.382zm11.406-10.508v-.215c2.618.325 4.72 1.504 6.309 3.535 1.602 2.018 2.402 4.414 2.402 7.188 0 2.93-.794 5.377-2.382 7.343-1.589 1.966-3.698 3.106-6.329 3.418V32c1.628-.378 2.911-1.49 3.848-3.34.951-1.849 1.426-4.258 1.426-7.226 0-2.8-.482-5.144-1.445-7.032-.951-1.888-2.227-3.046-3.829-3.476zm23.555 19.472c1.497 0 2.669-.481 3.516-1.445l.039.078c-.378.82-1.042 1.563-1.992 2.227-.938.65-2.045.976-3.321.976-1.953 0-3.496-.618-4.629-1.855-1.132-1.237-1.699-2.884-1.699-4.942v-8.28c0-1.68-.15-2.859-.449-3.536-.287-.677-.801-1.152-1.543-1.426l.078-.078c2.031-.156 3.802-.65 5.313-1.484l.039.078c-.235 1.523-.352 3.672-.352 6.445v7.13c0 2.004.43 3.528 1.289 4.57.873 1.028 2.11 1.542 3.711 1.542zm9.043-4.277c0 1.706.137 2.871.41 3.496.287.625.788 1.061 1.504 1.309v.117c-1.549.026-3.203.436-4.961 1.23l-.078-.078V17.156c0-1.68-.15-2.858-.449-3.535-.287-.677-.788-1.152-1.504-1.426l.039-.078c2.031-.156 3.802-.65 5.313-1.484l.078.078c-.235 1.146-.352 3.294-.352 6.445v8.965zm11.934 1.367c0 1.576.143 2.65.429 3.223.3.56.84.95 1.621 1.172V32h-7.168v-.117c.795-.235 1.329-.632 1.602-1.192.273-.572.41-1.64.41-3.203V6.512c0-1.68-.15-2.865-.449-3.555-.286-.69-.794-1.159-1.523-1.406l.039-.117c2.057-.13 3.834-.606 5.332-1.426l.078.039c-.235 1.601-.358 3.756-.371 6.465v20.976z" fill="#035940"/></svg>