<svg xmlns="http://www.w3.org/2000/svg" width="17" height="18" viewBox="0 0 17 18" fill="none">
<g id="mingcute:telegram-line" clip-path="url(#clip0_490_81)">
<g id="Group">
<path id="Vector" fill-rule="evenodd" clip-rule="evenodd" d="M14.2233 4.20305C14.2542 4.01557 14.2343 3.82323 14.1656 3.64607C14.0969 3.46892 13.9819 3.31343 13.8327 3.19581C13.6835 3.07819 13.5054 3.00274 13.3171 2.97732C13.1288 2.95191 12.9371 2.97745 12.7621 3.0513L0.649554 8.1513C-0.194779 8.50688 -0.237988 9.72805 0.649554 10.0964C1.5284 10.4629 2.42005 10.7979 3.3228 11.1008C4.15014 11.3742 5.05255 11.6271 5.77576 11.6986C5.97339 11.9352 6.22201 12.1626 6.4756 12.3715C6.86306 12.6903 7.32914 13.0183 7.8108 13.3328C8.77555 13.9632 9.84585 14.566 10.5669 14.9584C11.429 15.4259 12.461 14.8875 12.6154 13.9476L14.2233 4.20305ZM2.00743 9.11605L12.7203 4.60609L11.22 13.7011C10.5124 13.3165 9.4931 12.7406 8.58501 12.147C8.16648 11.8783 7.76241 11.5877 7.37447 11.2765C7.27077 11.1918 7.17013 11.1034 7.07272 11.0115L9.87843 8.20655C10.0113 8.07373 10.086 7.89355 10.0861 7.70565C10.0862 7.51775 10.0116 7.33752 9.87878 7.20461C9.74597 7.0717 9.56579 6.99699 9.37789 6.99693C9.18999 6.99686 9.00976 7.07144 8.87685 7.20426L5.8048 10.2763C5.28489 10.2097 4.56097 10.017 3.76622 9.75496C3.17455 9.55786 2.5876 9.34481 2.00743 9.11605Z" fill="#000000"/>
</g>
</g>
<defs fill="#000000">
<clipPath id="clip0_490_81" fill="#000000">
<rect width="17" height="17" fill="#000000" transform="translate(0 0.5)"/>
</clipPath>
</defs>
</svg>