<svg xmlns="http://www.w3.org/2000/svg" width="18" height="18" viewBox="0 0 18 18" fill="none">
<path id="Vector" d="M5.43 0.5H12.57C15.29 0.5 17.5 2.71 17.5 5.43V12.57C17.5 13.8775 16.9806 15.1315 16.056 16.056C15.1315 16.9806 13.8775 17.5 12.57 17.5H5.43C2.71 17.5 0.5 15.29 0.5 12.57V5.43C0.5 4.12248 1.01941 2.86852 1.94396 1.94396C2.86852 1.01941 4.12248 0.5 5.43 0.5ZM5.26 2.2C4.44844 2.2 3.67011 2.52239 3.09625 3.09625C2.52239 3.67011 2.2 4.44844 2.2 5.26V12.74C2.2 14.4315 3.5685 15.8 5.26 15.8H12.74C13.5516 15.8 14.3299 15.4776 14.9037 14.9037C15.4776 14.3299 15.8 13.5516 15.8 12.74V5.26C15.8 3.5685 14.4315 2.2 12.74 2.2H5.26ZM13.4625 3.475C13.7443 3.475 14.0145 3.58694 14.2138 3.7862C14.4131 3.98546 14.525 4.25571 14.525 4.5375C14.525 4.81929 14.4131 5.08954 14.2138 5.2888C14.0145 5.48806 13.7443 5.6 13.4625 5.6C13.1807 5.6 12.9105 5.48806 12.7112 5.2888C12.5119 5.08954 12.4 4.81929 12.4 4.5375C12.4 4.25571 12.5119 3.98546 12.7112 3.7862C12.9105 3.58694 13.1807 3.475 13.4625 3.475ZM9 4.75C10.1272 4.75 11.2082 5.19777 12.0052 5.9948C12.8022 6.79183 13.25 7.87283 13.25 9C13.25 10.1272 12.8022 11.2082 12.0052 12.0052C11.2082 12.8022 10.1272 13.25 9 13.25C7.87283 13.25 6.79183 12.8022 5.9948 12.0052C5.19777 11.2082 4.75 10.1272 4.75 9C4.75 7.87283 5.19777 6.79183 5.9948 5.9948C6.79183 5.19777 7.87283 4.75 9 4.75ZM9 6.45C8.3237 6.45 7.6751 6.71866 7.19688 7.19688C6.71866 7.6751 6.45 8.3237 6.45 9C6.45 9.6763 6.71866 10.3249 7.19688 10.8031C7.6751 11.2813 8.3237 11.55 9 11.55C9.6763 11.55 10.3249 11.2813 10.8031 10.8031C11.2813 10.3249 11.55 9.6763 11.55 9C11.55 8.3237 11.2813 7.6751 10.8031 7.19688C10.3249 6.71866 9.6763 6.45 9 6.45Z" fill="#000000"/>
</svg>