<?xml version="1.0" encoding="UTF-8"?>
<svg xmlns="http://www.w3.org/2000/svg" xmlns:xlink="http://www.w3.org/1999/xlink" width="28px" height="28px" viewBox="0 0 28 28" version="1.1">
<g id="surface1">
<path style=" stroke:none;fill-rule:nonzero;fill:rgb(0%,35.686275%,73.333333%);fill-opacity:1;" d="M 24.890625 3.890625 L 3.109375 3.890625 C 2.285156 3.890625 1.496094 4.214844 0.910156 4.800781 C 0.328125 5.382812 0 6.175781 0 7 L 0 14 L 28 14 L 28 7 C 28 6.175781 27.671875 5.382812 27.089844 4.800781 C 26.503906 4.214844 25.714844 3.890625 24.890625 3.890625 Z M 24.890625 3.890625 "/>
<path style=" stroke:none;fill-rule:nonzero;fill:rgb(100%,83.529412%,0%);fill-opacity:1;" d="M 28 21 C 28 21.824219 27.671875 22.617188 27.089844 23.199219 C 26.503906 23.785156 25.714844 24.109375 24.890625 24.109375 L 3.109375 24.109375 C 2.285156 24.109375 1.496094 23.785156 0.910156 23.199219 C 0.328125 22.617188 0 21.824219 0 21 L 0 14 L 28 14 Z M 28 21 "/>
</g>
</svg>
