<svg width="123" height="123" viewBox="0 0 123 123" fill="none" xmlns="http://www.w3.org/2000/svg">
<path d="M48.6875 79.868V43.132C48.6883 42.6723 48.8126 42.2214 49.0476 41.8263C49.2825 41.4313 49.6194 41.1067 50.0229 40.8866C50.4264 40.6665 50.8817 40.559 51.3411 40.5753C51.8004 40.5917 52.2469 40.7313 52.6338 40.9795L81.2107 59.3423C81.5726 59.5742 81.8703 59.8933 82.0765 60.2703C82.2828 60.6474 82.3908 61.0702 82.3908 61.5C82.3908 61.9297 82.2828 62.3526 82.0765 62.7296C81.8703 63.1066 81.5726 63.4258 81.2107 63.6576L52.6338 82.0256C52.2469 82.2738 51.8004 82.4134 51.3411 82.4297C50.8817 82.446 50.4264 82.3385 50.0229 82.1184C49.6194 81.8983 49.2825 81.5738 49.0476 81.1787C48.8126 80.7837 48.6883 80.3327 48.6875 79.8731V79.868Z" fill="white" fill-opacity="0.7"/>
<path d="M5.125 61.5C5.125 30.3656 30.3656 5.125 61.5 5.125C92.6344 5.125 117.875 30.3656 117.875 61.5C117.875 92.6344 92.6344 117.875 61.5 117.875C30.3656 117.875 5.125 92.6344 5.125 61.5ZM61.5 12.8125C48.5873 12.8125 36.2034 17.9421 27.0727 27.0727C17.9421 36.2034 12.8125 48.5873 12.8125 61.5C12.8125 74.4127 17.9421 86.7966 27.0727 95.9273C36.2034 105.058 48.5873 110.188 61.5 110.188C74.4127 110.188 86.7966 105.058 95.9273 95.9273C105.058 86.7966 110.188 74.4127 110.188 61.5C110.188 48.5873 105.058 36.2034 95.9273 27.0727C86.7966 17.9421 74.4127 12.8125 61.5 12.8125Z" fill="white" fill-opacity="0.7"/>
</svg>
